<mxfile host="app.diagrams.net" modified="2021-07-03T08:33:09.560Z" agent="5.0 (Windows NT 10.0; Win64; x64) AppleWebKit/537.36 (KHTML, like Gecko) Chrome/91.0.4472.124 Safari/537.36" etag="sNbvauzyurWX6Fd-z6pc" version="12.9.14" type="github">
  <diagram id="7BteKQJvjZbQfXcQPdTy" name="Page-1">
    <mxGraphModel dx="868" dy="450" grid="1" gridSize="10" guides="1" tooltips="1" connect="1" arrows="1" fold="1" page="1" pageScale="1" pageWidth="827" pageHeight="1169" math="0" shadow="0">
      <root>
        <mxCell id="0" />
        <mxCell id="1" parent="0" />
        <mxCell id="U4MYURUm31BHsy_62Isp-38" value="" style="rounded=0;whiteSpace=wrap;html=1;" parent="1" vertex="1">
          <mxGeometry x="80" y="110" width="640" height="750" as="geometry" />
        </mxCell>
        <mxCell id="U4MYURUm31BHsy_62Isp-16" style="edgeStyle=none;rounded=0;orthogonalLoop=1;jettySize=auto;html=1;" parent="1" source="U4MYURUm31BHsy_62Isp-1" target="U4MYURUm31BHsy_62Isp-15" edge="1">
          <mxGeometry relative="1" as="geometry" />
        </mxCell>
        <mxCell id="U4MYURUm31BHsy_62Isp-17" style="edgeStyle=none;rounded=0;orthogonalLoop=1;jettySize=auto;html=1;entryX=0.236;entryY=0.054;entryDx=0;entryDy=0;entryPerimeter=0;" parent="1" source="U4MYURUm31BHsy_62Isp-1" target="U4MYURUm31BHsy_62Isp-14" edge="1">
          <mxGeometry relative="1" as="geometry" />
        </mxCell>
        <mxCell id="U4MYURUm31BHsy_62Isp-30" style="edgeStyle=none;rounded=0;orthogonalLoop=1;jettySize=auto;html=1;" parent="1" source="U4MYURUm31BHsy_62Isp-1" target="U4MYURUm31BHsy_62Isp-29" edge="1">
          <mxGeometry relative="1" as="geometry" />
        </mxCell>
        <mxCell id="U4MYURUm31BHsy_62Isp-1" value="&lt;div&gt;User&lt;/div&gt;" style="shape=umlActor;verticalLabelPosition=bottom;verticalAlign=top;html=1;" parent="1" vertex="1">
          <mxGeometry x="20" y="570" width="30" height="60" as="geometry" />
        </mxCell>
        <mxCell id="U4MYURUm31BHsy_62Isp-2" value="&lt;div&gt;Gestionar Lista&lt;/div&gt;" style="ellipse;whiteSpace=wrap;html=1;" parent="1" vertex="1">
          <mxGeometry x="275" y="765" width="120" height="60" as="geometry" />
        </mxCell>
        <mxCell id="U4MYURUm31BHsy_62Isp-24" value="&amp;lt;extends&amp;gt;" style="edgeStyle=none;rounded=0;orthogonalLoop=1;jettySize=auto;html=1;dashed=1;" parent="1" source="U4MYURUm31BHsy_62Isp-4" target="U4MYURUm31BHsy_62Isp-15" edge="1">
          <mxGeometry relative="1" as="geometry" />
        </mxCell>
        <mxCell id="U4MYURUm31BHsy_62Isp-4" value="&lt;div&gt;Lista Global&lt;/div&gt;" style="ellipse;whiteSpace=wrap;html=1;" parent="1" vertex="1">
          <mxGeometry x="150" y="450" width="125" height="60" as="geometry" />
        </mxCell>
        <mxCell id="U4MYURUm31BHsy_62Isp-10" value="&amp;lt;include&amp;gt;" style="edgeStyle=none;rounded=0;orthogonalLoop=1;jettySize=auto;html=1;dashed=1;" parent="1" source="U4MYURUm31BHsy_62Isp-5" target="U4MYURUm31BHsy_62Isp-2" edge="1">
          <mxGeometry relative="1" as="geometry" />
        </mxCell>
        <mxCell id="U4MYURUm31BHsy_62Isp-23" value="&amp;lt;extends&amp;gt;" style="edgeStyle=none;rounded=0;orthogonalLoop=1;jettySize=auto;html=1;dashed=1;" parent="1" source="U4MYURUm31BHsy_62Isp-5" target="U4MYURUm31BHsy_62Isp-15" edge="1">
          <mxGeometry relative="1" as="geometry" />
        </mxCell>
        <mxCell id="U4MYURUm31BHsy_62Isp-5" value="&lt;div&gt;Listado&lt;/div&gt;&lt;div&gt; Personal&lt;/div&gt;&lt;div&gt;&lt;br&gt;&lt;/div&gt;" style="ellipse;whiteSpace=wrap;html=1;" parent="1" vertex="1">
          <mxGeometry x="320" y="630" width="120" height="60" as="geometry" />
        </mxCell>
        <mxCell id="U4MYURUm31BHsy_62Isp-22" value="&amp;lt;extends&amp;gt;" style="edgeStyle=none;rounded=0;orthogonalLoop=1;jettySize=auto;html=1;entryX=1;entryY=0.43;entryDx=0;entryDy=0;entryPerimeter=0;dashed=1;" parent="1" source="U4MYURUm31BHsy_62Isp-11" target="U4MYURUm31BHsy_62Isp-15" edge="1">
          <mxGeometry relative="1" as="geometry" />
        </mxCell>
        <mxCell id="U4MYURUm31BHsy_62Isp-11" value="&lt;div&gt;Lista Recomendaciones&lt;/div&gt;" style="ellipse;whiteSpace=wrap;html=1;" parent="1" vertex="1">
          <mxGeometry x="310" y="505" width="120" height="70" as="geometry" />
        </mxCell>
        <mxCell id="U4MYURUm31BHsy_62Isp-18" value="&amp;lt;extends&amp;gt;" style="edgeStyle=none;rounded=0;orthogonalLoop=1;jettySize=auto;html=1;entryX=1;entryY=0.5;entryDx=0;entryDy=0;dashed=1;" parent="1" source="U4MYURUm31BHsy_62Isp-13" target="U4MYURUm31BHsy_62Isp-4" edge="1">
          <mxGeometry relative="1" as="geometry" />
        </mxCell>
        <mxCell id="U4MYURUm31BHsy_62Isp-19" value="&amp;lt;extends&amp;gt;" style="edgeStyle=none;rounded=0;orthogonalLoop=1;jettySize=auto;html=1;entryX=1;entryY=0.5;entryDx=0;entryDy=0;dashed=1;" parent="1" source="U4MYURUm31BHsy_62Isp-13" target="U4MYURUm31BHsy_62Isp-11" edge="1">
          <mxGeometry relative="1" as="geometry" />
        </mxCell>
        <mxCell id="U4MYURUm31BHsy_62Isp-20" value="&amp;lt;extends&amp;gt;" style="edgeStyle=none;rounded=0;orthogonalLoop=1;jettySize=auto;html=1;entryX=1;entryY=0;entryDx=0;entryDy=0;dashed=1;" parent="1" source="U4MYURUm31BHsy_62Isp-13" target="U4MYURUm31BHsy_62Isp-5" edge="1">
          <mxGeometry relative="1" as="geometry" />
        </mxCell>
        <mxCell id="U4MYURUm31BHsy_62Isp-13" value="Reproductor" style="ellipse;whiteSpace=wrap;html=1;" parent="1" vertex="1">
          <mxGeometry x="520" y="450" width="140" height="70" as="geometry" />
        </mxCell>
        <mxCell id="U4MYURUm31BHsy_62Isp-14" value="Gestionar perfiles" style="ellipse;whiteSpace=wrap;html=1;" parent="1" vertex="1">
          <mxGeometry x="110" y="680" width="120" height="70" as="geometry" />
        </mxCell>
        <mxCell id="U4MYURUm31BHsy_62Isp-15" value="&lt;div&gt;Seleccion perfil&lt;/div&gt;" style="ellipse;whiteSpace=wrap;html=1;" parent="1" vertex="1">
          <mxGeometry x="110" y="575" width="120" height="70" as="geometry" />
        </mxCell>
        <mxCell id="U4MYURUm31BHsy_62Isp-32" style="edgeStyle=none;rounded=0;orthogonalLoop=1;jettySize=auto;html=1;entryX=1.012;entryY=0.357;entryDx=0;entryDy=0;entryPerimeter=0;" parent="1" source="U4MYURUm31BHsy_62Isp-25" target="U4MYURUm31BHsy_62Isp-28" edge="1">
          <mxGeometry relative="1" as="geometry" />
        </mxCell>
        <mxCell id="U4MYURUm31BHsy_62Isp-33" style="edgeStyle=none;rounded=0;orthogonalLoop=1;jettySize=auto;html=1;" parent="1" source="U4MYURUm31BHsy_62Isp-25" target="U4MYURUm31BHsy_62Isp-31" edge="1">
          <mxGeometry relative="1" as="geometry" />
        </mxCell>
        <mxCell id="U4MYURUm31BHsy_62Isp-25" value="Admin" style="shape=umlActor;verticalLabelPosition=bottom;verticalAlign=top;html=1;" parent="1" vertex="1">
          <mxGeometry x="760" y="260" width="30" height="60" as="geometry" />
        </mxCell>
        <mxCell id="U4MYURUm31BHsy_62Isp-28" value="&lt;div&gt;Gestionar Contenido&lt;/div&gt;" style="ellipse;whiteSpace=wrap;html=1;" parent="1" vertex="1">
          <mxGeometry x="510" y="340" width="140" height="70" as="geometry" />
        </mxCell>
        <mxCell id="U4MYURUm31BHsy_62Isp-29" value="Darte de alta" style="ellipse;whiteSpace=wrap;html=1;" parent="1" vertex="1">
          <mxGeometry x="120" y="300" width="140" height="70" as="geometry" />
        </mxCell>
        <mxCell id="U4MYURUm31BHsy_62Isp-31" value="Gestionar Usurarios" style="ellipse;whiteSpace=wrap;html=1;" parent="1" vertex="1">
          <mxGeometry x="510" y="220" width="140" height="70" as="geometry" />
        </mxCell>
        <mxCell id="U4MYURUm31BHsy_62Isp-41" style="edgeStyle=none;rounded=0;orthogonalLoop=1;jettySize=auto;html=1;endArrow=block;endFill=0;" parent="1" source="U4MYURUm31BHsy_62Isp-39" target="U4MYURUm31BHsy_62Isp-29" edge="1">
          <mxGeometry relative="1" as="geometry" />
        </mxCell>
        <mxCell id="U4MYURUm31BHsy_62Isp-39" value="Usuario basico" style="ellipse;whiteSpace=wrap;html=1;" parent="1" vertex="1">
          <mxGeometry x="120" y="160" width="140" height="70" as="geometry" />
        </mxCell>
        <mxCell id="U4MYURUm31BHsy_62Isp-42" style="edgeStyle=none;rounded=0;orthogonalLoop=1;jettySize=auto;html=1;endArrow=block;endFill=0;" parent="1" source="U4MYURUm31BHsy_62Isp-40" target="U4MYURUm31BHsy_62Isp-29" edge="1">
          <mxGeometry relative="1" as="geometry" />
        </mxCell>
        <mxCell id="U4MYURUm31BHsy_62Isp-40" value="&lt;div&gt;UsuarioPremium&lt;/div&gt;" style="ellipse;whiteSpace=wrap;html=1;" parent="1" vertex="1">
          <mxGeometry x="275" y="220" width="140" height="70" as="geometry" />
        </mxCell>
        <mxCell id="U4MYURUm31BHsy_62Isp-44" value="&lt;b&gt;&lt;font style=&quot;font-size: 20px&quot;&gt;Netflix&lt;/font&gt;&lt;/b&gt;" style="text;html=1;strokeColor=none;fillColor=none;align=center;verticalAlign=middle;whiteSpace=wrap;rounded=0;" parent="1" vertex="1">
          <mxGeometry x="340" y="120" width="100" height="40" as="geometry" />
        </mxCell>
      </root>
    </mxGraphModel>
  </diagram>
</mxfile>
